<?xml version="1.0" encoding="utf-8"?>
<!-- Generator: Adobe Illustrator 17.0.0, SVG Export Plug-In . SVG Version: 6.00 Build 0)  -->
<!DOCTYPE svg PUBLIC "-//W3C//DTD SVG 1.1//EN" "http://www.w3.org/Graphics/SVG/1.1/DTD/svg11.dtd">
<svg version="1.1" id="Layer_1" xmlns="http://www.w3.org/2000/svg" xmlns:xlink="http://www.w3.org/1999/xlink" x="0px" y="0px"
	 width="1400px" height="980px" viewBox="0 0 1400 980" enable-background="new 0 0 1400 980" xml:space="preserve">
<linearGradient id="SVGID_1_" gradientUnits="userSpaceOnUse" x1="700" y1="980" x2="700" y2="-3.142668e-008">
	<stop  offset="0" style="stop-color:#FFF6DE"/>
	<stop  offset="1" style="stop-color:#A7E3EB"/>
</linearGradient>
<rect fill-rule="evenodd" clip-rule="evenodd" fill="url(#SVGID_1_)" width="1400" height="980"/>
<g>
	<path fill-rule="evenodd" clip-rule="evenodd" fill="#D7EDE4" d="M1400,276.6c-120.1,4-292.1,15-423.3,28.2
		c86,4.9,228.2,3.4,342.1,1.4c-181.1,9.4-379.5,28.5-538.4,54.6c166.3,12.9,384,1.9,565.3-8.3c-58.2,5-109.4,10.7-160.6,19.7
		c68.7,3.8,148.7-1.7,214.9-8.6V276.6z"/>
	<path fill-rule="evenodd" clip-rule="evenodd" fill="#E9F1E2" d="M1400,276.6c-107.9,4-231.1,12.7-348.9,25.9
		c77.2,4.9,173.9,5.7,276.1,3.7c-158.3,16.3-269.9,26.7-414.3,46.7c152,8.1,281.9,6,438.5-0.5c-52.3,5-95,9.5-141,18.5
		c61.7,3.8,130.8-0.6,189.7-7.4V276.6z"/>
	<path fill-rule="evenodd" clip-rule="evenodd" fill="#D7EDE4" d="M955.7,411.9c104.3-12.2,282.8-17.7,325-7.4
		C1205,424.8,1058.5,420.2,955.7,411.9L955.7,411.9z"/>
	<path fill-rule="evenodd" clip-rule="evenodd" fill="#E9F1E2" d="M1026,410.9c59.2-8,160.5-11.6,184.4-4.9
		C1167.5,419.4,1084.3,416.4,1026,410.9L1026,410.9z"/>
	<path fill-rule="evenodd" clip-rule="evenodd" fill="#E0EFE3" d="M140.6,518.7c74.8-8.7,202.7-12.7,232.9-5.3
		C319.2,528,214.2,524.7,140.6,518.7L140.6,518.7z"/>
	<path fill-rule="evenodd" clip-rule="evenodd" fill="#E9F1E2" d="M191,518c42.4-5.7,115-8.3,132.2-3.5
		C292.3,524.1,232.8,522,191,518L191,518z"/>
	<path fill-rule="evenodd" clip-rule="evenodd" fill="#E0EFE3" d="M110.4,462.2c174-20.3,471.6-29.4,541.9-12.3
		C526.1,483.8,281.8,476.1,110.4,462.2L110.4,462.2z"/>
	<path fill-rule="evenodd" clip-rule="evenodd" fill="#E9F1E2" d="M227.6,460.6c98.7-13.4,267.6-19.4,307.5-8.1
		C463.5,474.9,324.9,469.8,227.6,460.6L227.6,460.6z"/>
	<path fill-rule="evenodd" clip-rule="evenodd" fill="#E0EFE3" d="M0,393.5c89.5-3.5,172.4-2.7,201.3,4.3
		C152.1,411,78.5,415.3,0,414.7V393.5z"/>
	<path fill-rule="evenodd" clip-rule="evenodd" fill="#E9F1E2" d="M0,397c52.7-2.5,102-2.2,118.9,2.6c-28.9,9-72.3,11.7-118.9,11.1
		V397z"/>
</g>
<path fill-rule="evenodd" clip-rule="evenodd" fill="#D8CFE8" d="M303,753h186V643h-18v-22.4l-22,16.2V686h-44v-18h-19v-18h-16v-7
	h-3v-5h-15v5h-4v55h-13v-27h-32V753z M1155,753h21v-80h-21V753z M1141,753V643h-25v-33h-4v-13.1l-22,6.4v6.7h-4v79h-23v-29h-38v93
	H1141z M948,628v-40h-2v40h-4v10h-5v115h20V638h-4v-10H948z M901,753h22v-93h-22V753z M826,753h22V623h-22V753z M739,753h22v-93h-22
	V753z M661,753v-93h-16v-17h-22v110H661z"/>
<g>
	<rect x="477" y="560" fill-rule="evenodd" clip-rule="evenodd" fill="#9EBEFF" width="76" height="193"/>
	<path fill-rule="evenodd" clip-rule="evenodd" fill="#7DA8FF" d="M514.7,753H553V560h-5.9C547.1,643,541.4,706,514.7,753L514.7,753
		z"/>
	<rect x="477" y="744" fill-rule="evenodd" clip-rule="evenodd" fill="#F2EEED" width="76" height="1"/>
	<rect x="477" y="725" fill-rule="evenodd" clip-rule="evenodd" fill="#F2EEED" width="76" height="1"/>
	<rect x="477" y="706" fill-rule="evenodd" clip-rule="evenodd" fill="#F2EEED" width="76" height="2"/>
	<rect x="477" y="687" fill-rule="evenodd" clip-rule="evenodd" fill="#F2EEED" width="76" height="1"/>
	<rect x="477" y="667" fill-rule="evenodd" clip-rule="evenodd" fill="#F2EEED" width="76" height="1"/>
	<rect x="477" y="648" fill-rule="evenodd" clip-rule="evenodd" fill="#F2EEED" width="76" height="1"/>
	<rect x="477" y="628" fill-rule="evenodd" clip-rule="evenodd" fill="#F2EEED" width="76" height="1"/>
	<rect x="477" y="610" fill-rule="evenodd" clip-rule="evenodd" fill="#F2EEED" width="76" height="1"/>
	<rect x="477" y="590" fill-rule="evenodd" clip-rule="evenodd" fill="#F2EEED" width="76" height="1"/>
	<rect x="477" y="571" fill-rule="evenodd" clip-rule="evenodd" fill="#F2EEED" width="76" height="1"/>
</g>
<g>
	<rect x="553" y="633" fill-rule="evenodd" clip-rule="evenodd" fill="#F5A6A2" width="84" height="120"/>
	<rect x="564" y="618" fill-rule="evenodd" clip-rule="evenodd" fill="#F5A6A2" width="61" height="14"/>
	<rect x="598" y="603" fill-rule="evenodd" clip-rule="evenodd" fill="#F5A6A2" width="22" height="13"/>
	<rect x="615" y="597" fill-rule="evenodd" clip-rule="evenodd" fill="#F5A6A2" width="3" height="6"/>
	<rect x="609" y="597" fill-rule="evenodd" clip-rule="evenodd" fill="#F5A6A2" width="3" height="6"/>
	<rect x="623" y="633" fill-rule="evenodd" clip-rule="evenodd" fill="#D19296" width="14" height="120"/>
	<path fill-rule="evenodd" clip-rule="evenodd" fill="#F2EEED" d="M558,657h17v-1h-17V657z M558,661h17v-1h-17V661z M614,661h17v-1
		h-17V661z M586,661h17v-1h-17V661z M614,657h17v-1h-17V657z M586,657h17v-1h-17V657z"/>
	<path fill-rule="evenodd" clip-rule="evenodd" fill="#F2EEED" d="M558,674h17v-1h-17V674z M558,678h17v-1h-17V678z M614,678h17v-1
		h-17V678z M586,678h17v-1h-17V678z M614,674h17v-1h-17V674z M586,674h17v-1h-17V674z"/>
	<path fill-rule="evenodd" clip-rule="evenodd" fill="#F2EEED" d="M558,710h17v-1h-17V710z M558,714h17v-2h-17V714z M614,714h17v-2
		h-17V714z M586,714h17v-2h-17V714z M614,710h17v-1h-17V710z M586,710h17v-1h-17V710z"/>
	<path fill-rule="evenodd" clip-rule="evenodd" fill="#F2EEED" d="M558,727h17v-1h-17V727z M558,731h17v-2h-17V731z M614,731h17v-2
		h-17V731z M586,731h17v-2h-17V731z M614,727h17v-1h-17V727z M586,727h17v-1h-17V727z"/>
</g>
<g>
	<path fill-rule="evenodd" clip-rule="evenodd" fill="#BABED6" d="M406.5,753H462V582.3L425.9,554c-10.4,38.9-19.6,136-19.6,199
		H406.5z"/>
	<path fill-rule="evenodd" clip-rule="evenodd" fill="#9296B1" d="M433.8,753H462V582.3L425.9,554c-10,38.9-5,150,7.8,199H433.8z"/>
	<path fill-rule="evenodd" clip-rule="evenodd" fill="#F2EEED" d="M430.1,753h7.4c-22.4-67-17.5-176.6-9.8-197.6l-1.7-1.2
		C415.5,593.1,419.9,698,430.1,753L430.1,753z"/>
	<path fill-rule="evenodd" clip-rule="evenodd" fill="#737699" d="M441.7,753H462V582.3l-5.5-4c0,125.8-27.7,125.7-15,174.7H441.7z"
		/>
</g>
<g>
	<rect x="651" y="466" fill-rule="evenodd" clip-rule="evenodd" fill="#65A4B0" width="97" height="287"/>
	<rect x="662" y="373" fill-rule="evenodd" clip-rule="evenodd" fill="#65A4B0" width="75" height="90"/>
	<rect x="674" y="358" fill-rule="evenodd" clip-rule="evenodd" fill="#65A4B0" width="52" height="12"/>
	<rect x="680" y="345" fill-rule="evenodd" clip-rule="evenodd" fill="#65A4B0" width="40" height="11"/>
	<rect x="688" y="331" fill-rule="evenodd" clip-rule="evenodd" fill="#65A4B0" width="23" height="11"/>
	<rect x="698" y="270" fill-rule="evenodd" clip-rule="evenodd" fill="#65A4B0" width="3" height="59"/>
	<path fill-rule="evenodd" clip-rule="evenodd" fill="#97CCD6" d="M731.1,463c0-115-62.8-114.9-62.8,0L731.1,463
		C731.1,463,731.1,463,731.1,463z"/>
	<path fill-rule="evenodd" clip-rule="evenodd" fill="#97CCD6" d="M742.6,557.3c-0.3-113.4-86-113.2-86,0.7H742
		C742.1,557.7,742.3,557.5,742.6,557.3z"/>
	<path fill-rule="evenodd" clip-rule="evenodd" fill="#97CCD6" d="M722,370c-0.1-11-44.8-11-44.8,0L722,370C722,370,722,370,722,370
		z"/>
	<path fill-rule="evenodd" clip-rule="evenodd" fill="#97CCD6" d="M716.1,355.9c-0.2-10.9-32.9-10.9-32.9,0.1H716
		C716,356,716.1,355.9,716.1,355.9z"/>
	<path fill-rule="evenodd" clip-rule="evenodd" fill="#97CCD6" d="M708.9,341.3c-0.7-11.3-18.6-11-18.6,0.7h18.3
		C708.7,341.7,708.8,341.5,708.9,341.3z"/>
	<rect x="657" y="558" fill-rule="evenodd" clip-rule="evenodd" fill="#97CCD6" width="86" height="195"/>
	<path fill-rule="evenodd" clip-rule="evenodd" fill="#F2F5F5" d="M690,745h19v-1h-19V745z M690,572h19v-1h-19V572z M690,591h19v-1
		h-19V591z M690,611h19v-1h-19V611z M690,629h19v-1h-19V629z M690,649h19v-1h-19V649z M690,668h19v-1h-19V668z M690,688h19v-1h-19
		V688z M690,708h19v-2h-19V708z M690,726h19v-1h-19V726z"/>
	<path fill-rule="evenodd" clip-rule="evenodd" fill="#F2F5F5" d="M690,398h19v-1h-19V398z M690,418h19v-1h-19V418z M690,436h19v-1
		h-19V436z M690,456h19v-1h-19V456z M690,495h19v-1h-19V495z M690,514h19v-1h-19V514z M690,533h19v-1h-19V533z M690,552h19v-1h-19
		V552z"/>
	<path fill-rule="evenodd" clip-rule="evenodd" fill="#F2F5F5" d="M722,753V532h-2v221H722z"/>
	<path fill-rule="evenodd" clip-rule="evenodd" fill="#F2F5F5" d="M677,753V532h-2v221H677z"/>
</g>
<g>
	<g>
		<polygon fill-rule="evenodd" clip-rule="evenodd" fill="#D9C8A9" points="756,753 831,753 831,603.6 756,560.1 		"/>
		<polygon fill-rule="evenodd" clip-rule="evenodd" fill="#BDA880" points="788.5,753 831,753 831,603.6 816.4,595.4 		"/>
		<rect x="756" y="706" fill-rule="evenodd" clip-rule="evenodd" fill="#F2EEED" width="75" height="2"/>
		<rect x="756" y="687" fill-rule="evenodd" clip-rule="evenodd" fill="#F2EEED" width="75" height="1"/>
		<rect x="756" y="667" fill-rule="evenodd" clip-rule="evenodd" fill="#F2EEED" width="75" height="1"/>
		<rect x="756" y="648" fill-rule="evenodd" clip-rule="evenodd" fill="#F2EEED" width="75" height="1"/>
		<rect x="756" y="628" fill-rule="evenodd" clip-rule="evenodd" fill="#F2EEED" width="75" height="1"/>
		<rect x="756" y="610" fill-rule="evenodd" clip-rule="evenodd" fill="#F2EEED" width="75" height="1"/>
		<polygon fill-rule="evenodd" clip-rule="evenodd" fill="#F2EEED" points="756,591 809.9,591 807.9,590 756,590 		"/>
		<polygon fill-rule="evenodd" clip-rule="evenodd" fill="#F2EEED" points="756,572 776.4,572 774.4,571 756,571 		"/>
	</g>
	<rect x="756" y="744" fill-rule="evenodd" clip-rule="evenodd" fill="#F2EEED" width="75" height="1"/>
	<rect x="756" y="725" fill-rule="evenodd" clip-rule="evenodd" fill="#F2EEED" width="75" height="1"/>
</g>
<g>
	<linearGradient id="SVGID_2_" gradientUnits="userSpaceOnUse" x1="700" y1="686.75" x2="700" y2="974.8682">
		<stop  offset="0" style="stop-color:#C1CECE"/>
		<stop  offset="1" style="stop-color:#4F9BB2"/>
	</linearGradient>
	<rect y="753" fill-rule="evenodd" clip-rule="evenodd" fill="url(#SVGID_2_)" width="1400" height="227"/>
	<path fill-rule="evenodd" clip-rule="evenodd" fill="#B4C3D5" d="M302.8,753c51.7,23-13.8,12.3-13.8,21.2c0,6.3,19.9,2.3,19.9,9.1
		c0,3.1-8.8,0.1-8.8,3.2c0,4.5,33.8-0.4,33.8,6.9c0,4.5-29.2,3.4-29.2,6.9c0,6.9,135.3,5.6,110.7,10.6
		C311.6,831.6,522.3,842,451,875h502v-21.2c125,5.8,124.8-3.2,93.5-8.3c-22.8-3.7-33.6-12.9,12.9-13.4c33.7-0.3,40.6-6.5,12.3-13.6
		c-47.8-11.9,186-18,104.7-28.5c-23.3-3-5.3-8.1,25.8-14.8c24.6-5.3-49.1-9.3-17.8-14.9c7.9-1.4,39-0.3,41-7.3H302.8z"/>
</g>
<g>
	<rect x="837" y="587" fill-rule="evenodd" clip-rule="evenodd" fill="#5BD4D2" width="68" height="166"/>
	<rect x="846" y="567" fill-rule="evenodd" clip-rule="evenodd" fill="#5BD4D2" width="49" height="18"/>
	<rect x="892" y="587" fill-rule="evenodd" clip-rule="evenodd" fill="#4BC2C0" width="13" height="166"/>
	<path fill-rule="evenodd" clip-rule="evenodd" fill="#F2EEED" d="M861,728h-4v-3h4V728z M901,742h-5v-5h5V742z M901,728h-5v-3h5
		V728z M894,728h-5v-3h5V728z M894,742h-5v-5h5V742z M885,742h-5v-5h5V742z M885,728h-5v-3h5V728z M878,728h-5v-3h5V728z M878,742
		h-5v-5h5V742z M869,742h-5v-5h5V742z M869,728h-5v-3h5V728z M861,742h-4v-5h4V742z M845,742h-4v-5h4V742z M853,742h-5v-5h5V742z
		 M845,728h-4v-3h4V728z M853,728h-5v-3h5V728z"/>
	<path fill-rule="evenodd" clip-rule="evenodd" fill="#F2EEED" d="M861,688h-4v-5h4V688z M901,700h-5v-3h5V700z M901,688h-5v-5h5
		V688z M894,688h-5v-5h5V688z M894,700h-5v-3h5V700z M885,700h-5v-3h5V700z M885,688h-5v-5h5V688z M878,688h-5v-5h5V688z M878,700
		h-5v-3h5V700z M869,700h-5v-3h5V700z M869,688h-5v-5h5V688z M861,700h-4v-3h4V700z M845,700h-4v-3h4V700z M853,700h-5v-3h5V700z
		 M845,688h-4v-5h4V688z M853,688h-5v-5h5V688z"/>
	<path fill-rule="evenodd" clip-rule="evenodd" fill="#F2EEED" d="M861,646h-4v-3h4V646z M901,660h-5v-5h5V660z M901,646h-5v-3h5
		V646z M894,646h-5v-3h5V646z M894,660h-5v-5h5V660z M885,660h-5v-5h5V660z M885,646h-5v-3h5V646z M878,646h-5v-3h5V646z M878,660
		h-5v-5h5V660z M869,660h-5v-5h5V660z M869,646h-5v-3h5V646z M861,660h-4v-5h4V660z M845,660h-4v-5h4V660z M853,660h-5v-5h5V660z
		 M845,646h-4v-3h4V646z M853,646h-5v-3h5V646z"/>
	<path fill-rule="evenodd" clip-rule="evenodd" fill="#F2EEED" d="M861,606h-4v-4h4V606z M901,620h-5v-5h5V620z M901,606h-5v-4h5
		V606z M894,606h-5v-4h5V606z M894,620h-5v-5h5V620z M885,620h-5v-5h5V620z M885,606h-5v-4h5V606z M878,606h-5v-4h5V606z M878,620
		h-5v-5h5V620z M869,620h-5v-5h5V620z M869,606h-5v-4h5V606z M861,620h-4v-5h4V620z M845,620h-4v-5h4V620z M853,620h-5v-5h5V620z
		 M845,606h-4v-4h4V606z M853,606h-5v-4h5V606z"/>
</g>
<g>
	<rect x="913" y="539" fill-rule="evenodd" clip-rule="evenodd" fill="#E1BBAE" width="26" height="214"/>
	<path fill-rule="evenodd" clip-rule="evenodd" fill="#F2EEED" d="M922,744h8v-2h-8V744z M922,549h8v-2h-8V549z M922,571h8v-2h-8
		V571z M922,593h8v-2h-8V593z M922,613h8v-1h-8V613z M922,635h8v-1h-8V635z M922,657h8v-1h-8V657z M922,679h8v-2h-8V679z M922,700h8
		v-1h-8V700z M922,722h8v-1h-8V722z"/>
	<rect x="908" y="503" fill-rule="evenodd" clip-rule="evenodd" fill="#E1BBAE" width="36" height="36"/>
	<path fill-rule="evenodd" clip-rule="evenodd" fill="#B08676" d="M926.1,534.2c7,0,12.7-5.7,12.7-12.7c0-7-5.7-12.8-12.7-12.8
		c-7,0-12.8,5.7-12.8,12.8C913.3,528.5,919,534.2,926.1,534.2L926.1,534.2z"/>
	<path fill-rule="evenodd" clip-rule="evenodd" fill="#F2EEED" d="M926.1,531.9c5.7,0,10.4-4.7,10.4-10.4c0-5.7-4.7-10.4-10.4-10.4
		c-5.7,0-10.4,4.7-10.4,10.4C915.6,527.2,920.3,531.9,926.1,531.9L926.1,531.9z"/>
	<rect x="913" y="539" fill-rule="evenodd" clip-rule="evenodd" fill="#B08676" width="26" height="5"/>
	<polygon fill-rule="evenodd" clip-rule="evenodd" fill="#E1BBAE" points="939.8,503 912.2,503 926.1,490.3 	"/>
</g>
<g>
	<path fill-rule="evenodd" clip-rule="evenodd" fill="#F5AB7E" d="M943.9,753h100.2c-46.9-124,25.4-186.2-21.8-267.8l-24.5,13.6
		C968.7,590.5,953.3,668,943.9,753L943.9,753z"/>
	<path fill-rule="evenodd" clip-rule="evenodd" fill="#F4F2F1" d="M944.7,745h70.3v-1h-70.2L944.7,745z M976.9,571l-0.3,1h38.4v-1
		H976.9z M972,590l-0.3,1h43.2v-1H972z M967.5,610l-0.2,1h47.7v-1H967.5z M963.3,628l-0.2,1h51.9v-1H963.3z M959.5,648l-0.2,1h55.7
		v-1H959.5z M955.9,667l-0.2,1h59.3v-1H955.9z M952.7,687l-0.2,1h62.5v-1H952.7z M949.8,706l-0.2,2h65.4v-2H949.8z M947.2,725
		l-0.1,1h68v-1H947.2z"/>
	<path fill-rule="evenodd" clip-rule="evenodd" fill="#EB9E77" d="M988.4,753h55.8c-46.9-124,25.4-186.2-21.8-267.8l-24.5,13.6
		C979.8,597.4,976.9,690,988.4,753L988.4,753z"/>
	<path fill-rule="evenodd" clip-rule="evenodd" fill="#F9BF8A" d="M982.7,753H994c-16.3-135,47.7-215.8,28.3-267.8l-24.5,13.6
		C968.7,590.5,960.7,705,982.7,753L982.7,753z"/>
</g>
<rect x="234" y="747" fill-rule="evenodd" clip-rule="evenodd" fill="#528E9E" width="999" height="6"/>
<path fill-rule="evenodd" clip-rule="evenodd" fill="#FFFFFF" d="M274.3,759.1c3.7,0,6.8,0.5,6.8,1s-3,1-6.8,1c-3.8,0-6.8-0.5-6.8-1
	S270.6,759.1,274.3,759.1L274.3,759.1z M114.7,929.6c3.7,0,6.8,0.5,6.8,1c0,0.6-3.1,1-6.8,1c-3.8,0-6.8-0.5-6.8-1
	C107.9,930.1,110.9,929.6,114.7,929.6L114.7,929.6z M102.2,891.8c13.6,0,24.6,1.6,24.6,3.7c0,2.1-11,3.7-24.6,3.7
	c-13.6,0-24.6-1.6-24.6-3.7C77.5,893.4,88.6,891.8,102.2,891.8L102.2,891.8z M61.4,818.2c13.6,0,24.6,1.7,24.6,3.7
	c0,2-11,3.7-24.6,3.7c-13.6,0-24.6-1.7-24.6-3.7C36.8,819.9,47.8,818.2,61.4,818.2L61.4,818.2z M91.1,847.8c8.5,0,15.4,1,15.4,2.3
	c0,1.3-6.9,2.3-15.4,2.3c-8.5,0-15.4-1-15.4-2.3C75.6,848.9,82.5,847.8,91.1,847.8L91.1,847.8z M79.9,834.8c3.8,0,6.8,0.5,6.8,1
	c0,0.6-3,1-6.8,1c-3.7,0-6.8-0.5-6.8-1C73.1,835.3,76.1,834.8,79.9,834.8L79.9,834.8z M119.8,871c8.5,0,15.4,1,15.4,2.3
	s-6.9,2.3-15.4,2.3c-8.5,0-15.4-1-15.4-2.3S111.2,871,119.8,871L119.8,871z M133.2,906.4c3.8,0,6.8,0.5,6.8,1c0,0.6-3,1-6.8,1
	c-3.8,0-6.8-0.5-6.8-1C126.4,906.8,129.4,906.4,133.2,906.4L133.2,906.4z M197.1,848c8.5,0,15.4,1,15.4,2.3c0,1.3-6.9,2.3-15.4,2.3
	c-8.5,0-15.4-1-15.4-2.3C181.7,849.1,188.6,848,197.1,848L197.1,848z M174.4,872.4c3.8,0,6.8,0.5,6.8,1c0,0.6-3,1-6.8,1
	c-3.7,0-6.8-0.5-6.8-1C167.6,872.8,170.6,872.4,174.4,872.4L174.4,872.4z M140.1,846.5c3.8,0,6.8,0.5,6.8,1c0,0.6-3,1-6.8,1
	c-3.7,0-6.8-0.5-6.8-1C133.3,846.9,136.4,846.5,140.1,846.5L140.1,846.5z M174.4,842.3c3.8,0,6.8,0.5,6.8,1c0,0.6-3,1-6.8,1
	c-3.7,0-6.8-0.5-6.8-1C167.6,842.8,170.6,842.3,174.4,842.3L174.4,842.3z M191.5,822.9c3.7,0,6.8,0.5,6.8,1c0,0.6-3.1,1-6.8,1
	c-3.8,0-6.8-0.5-6.8-1C184.7,823.3,187.8,822.9,191.5,822.9L191.5,822.9z M130.9,823.8c8.5,0,15.4,1,15.4,2.3
	c0,1.3-6.9,2.3-15.4,2.3s-15.4-1-15.4-2.3C115.4,824.8,122.4,823.8,130.9,823.8L130.9,823.8z M263.8,784.4c3.7,0,6.8,0.5,6.8,1
	c0,0.6-3,1-6.8,1c-3.8,0-6.8-0.5-6.8-1C256.9,784.8,260,784.4,263.8,784.4L263.8,784.4z M170.2,774.9c9.9,0,17.9,1.2,17.9,2.7
	c0,1.5-8,2.7-17.9,2.7c-9.9,0-17.9-1.2-17.9-2.7C152.3,776.1,160.3,774.9,170.2,774.9L170.2,774.9z M27.3,784.9c3.7,0,6.8,0.5,6.8,1
	c0,0.6-3.1,1-6.8,1c-3.8,0-6.8-0.5-6.8-1C20.5,785.3,23.5,784.9,27.3,784.9L27.3,784.9z M14.6,774.6c3.8,0,6.8,0.5,6.8,1
	c0,0.6-3,1-6.8,1c-3.7,0-6.8-0.5-6.8-1C7.9,775.1,10.9,774.6,14.6,774.6L14.6,774.6z M68.7,800.4c3.7,0,6.8,0.5,6.8,1
	c0,0.6-3.1,1-6.8,1c-3.8,0-6.8-0.5-6.8-1C61.9,800.9,64.9,800.4,68.7,800.4L68.7,800.4z M64.6,791.1c7.7,0,14,0.9,14,2.1
	c0,1.2-6.3,2.1-14,2.1s-14-0.9-14-2.1C50.6,792,56.8,791.1,64.6,791.1L64.6,791.1z M126.4,792c13.6,0,24.6,1.7,24.6,3.7
	c0,2.1-11,3.7-24.6,3.7c-13.6,0-24.6-1.6-24.6-3.7C101.8,793.7,112.8,792,126.4,792L126.4,792z M65.7,777.1c10.9,0,19.7,1.3,19.7,3
	c0,1.6-8.8,3-19.7,3s-19.7-1.3-19.7-3C46,778.4,54.8,777.1,65.7,777.1L65.7,777.1z M85,766.4c3.8,0,6.8,0.5,6.8,1c0,0.6-3,1-6.8,1
	c-3.7,0-6.8-0.5-6.8-1C78.2,766.9,81.3,766.4,85,766.4L85,766.4z M53.6,759c3.8,0,6.8,0.5,6.8,1c0,0.6-3,1-6.8,1
	c-3.7,0-6.8-0.5-6.8-1C46.8,759.5,49.9,759,53.6,759L53.6,759z M129.9,765.6c3.7,0,6.8,0.5,6.8,1c0,0.6-3,1-6.8,1
	c-3.8,0-6.8-0.5-6.8-1C123,766,126.1,765.6,129.9,765.6L129.9,765.6z M120.6,777.1c7.3,0,13.2,0.9,13.2,2c0,1.1-5.9,2-13.2,2
	c-7.3,0-13.2-0.9-13.2-2C107.4,778,113.3,777.1,120.6,777.1L120.6,777.1z M152.8,761.9c4.9,0,8.9,0.6,8.9,1.3c0,0.8-4,1.4-8.9,1.4
	c-4.9,0-8.9-0.6-8.9-1.4C143.8,762.5,147.8,761.9,152.8,761.9L152.8,761.9z M219.3,785.2c3.7,0,6.8,0.5,6.8,1s-3,1-6.8,1
	c-3.8,0-6.8-0.5-6.8-1S215.5,785.2,219.3,785.2L219.3,785.2z M191.1,797.9c8.5,0,15.4,1,15.4,2.3c0,1.3-6.9,2.3-15.4,2.3
	c-8.5,0-15.4-1-15.4-2.3C175.6,798.9,182.5,797.9,191.1,797.9L191.1,797.9z M303.1,771c3.7,0,6.8,0.5,6.8,1c0,0.6-3,1-6.8,1
	c-3.8,0-6.8-0.5-6.8-1C296.3,771.4,299.4,771,303.1,771L303.1,771z M241.7,771.7c6.6,0,12,0.8,12,1.8c0,1-5.4,1.8-12,1.8
	c-6.6,0-12-0.8-12-1.8C229.7,772.5,235,771.7,241.7,771.7L241.7,771.7z M205,761.5c10.9,0,19.7,1.3,19.7,3s-8.8,3-19.7,3
	c-10.8,0-19.7-1.3-19.7-3S194.2,761.5,205,761.5L205,761.5z M230.4,805.9c6.2,0,11.3,0.8,11.3,1.7c0,0.9-5,1.7-11.3,1.7
	s-11.3-0.8-11.3-1.7C219.1,806.7,224.2,805.9,230.4,805.9L230.4,805.9z"/>
<path fill-rule="evenodd" clip-rule="evenodd" fill="#FFFFFF" d="M125.1,725.7c18.7,0,34-15.3,34-34c0-18.7-15.3-34-34-34
	c-18.8,0-34.1,15.3-34.1,34C91.1,710.4,106.3,725.7,125.1,725.7L125.1,725.7z"/>
<path fill-rule="evenodd" clip-rule="evenodd" fill="#FFFFFF" d="M533.2,768.3c4.5,0,8.2,0.6,8.2,1.3c0,0.7-3.7,1.2-8.2,1.2
	c-4.5,0-8.2-0.6-8.2-1.2C525,768.8,528.6,768.3,533.2,768.3L533.2,768.3z M399.1,765.5c1.7,0,3.1,0.2,3.1,0.5c0,0.3-1.4,0.5-3.1,0.5
	s-3.1-0.2-3.1-0.5C396,765.7,397.4,765.5,399.1,765.5L399.1,765.5z M393.3,760.8c1.7,0,3.1,0.2,3.1,0.5c0,0.2-1.4,0.5-3.1,0.5
	c-1.7,0-3.1-0.2-3.1-0.5C390.2,761,391.6,760.8,393.3,760.8L393.3,760.8z M445.3,779c3.5,0,6.4,1,6.4,1c0,1-12.8,1-12.8,0
	C438.9,780,441.8,779,445.3,779L445.3,779z M487.4,779.6c6.2,0,11.3,0.8,11.3,1.7c0,0.9-5.1,1.7-11.3,1.7c-6.2,0-11.3-0.7-11.3-1.7
	C476.1,780.4,481.1,779.6,487.4,779.6L487.4,779.6z M445.9,772.6c5,0,9,0.6,9,1.4c0,0.7-4,1.4-9,1.4c-5,0-9-0.6-9-1.4
	C436.8,773.2,440.9,772.6,445.9,772.6L445.9,772.6z M468.4,767.9c1.7,0,3.1,0.2,3.1,0.5c0,0.2-1.4,0.5-3.1,0.5s-3.1-0.2-3.1-0.5
	C465.3,768.1,466.7,767.9,468.4,767.9L468.4,767.9z M424.8,762.8c1.7,0,3.1,0.2,3.1,0.5c0,0.2-1.4,0.5-3.1,0.5
	c-1.7,0-3.1-0.2-3.1-0.5C421.7,763.1,423.1,762.8,424.8,762.8L424.8,762.8z M489,767.5c1.7,0,3.1,0.2,3.1,0.5c0,0.2-1.4,0.5-3.1,0.5
	c-1.7,0-3.1-0.2-3.1-0.5C485.8,767.7,487.2,767.5,489,767.5L489,767.5z M484.7,772.7c3.4,0,6.1,0.4,6.1,0.9c0,0.5-2.7,0.9-6.1,0.9
	c-3.3,0-6.1-0.4-6.1-0.9C478.7,773.2,481.4,772.7,484.7,772.7L484.7,772.7z M525.2,762.3c2.2,0,4.1,0.3,4.1,0.6s-1.9,0.6-4.1,0.6
	c-2.3,0-4.1-0.3-4.1-0.6S522.9,762.3,525.2,762.3L525.2,762.3z M565.9,766.8c3,0,5.5,0.3,5.5,0.8c0,0.5-2.4,0.8-5.5,0.8
	c-3,0-5.5-0.3-5.5-0.8C560.5,767.2,562.9,766.8,565.9,766.8L565.9,766.8z M549.1,762.1c5,0,9,0.6,9,1.4c0,0.7-4,1.4-9,1.4
	s-9-0.6-9-1.4C540.1,762.7,544.1,762.1,549.1,762.1L549.1,762.1z"/>
<path fill-rule="evenodd" clip-rule="evenodd" fill="#FFFFFF" d="M1021.3,772.9c4.5,0,8.2,0.6,8.2,1.3c0,0.7-3.7,1.2-8.2,1.2
	c-4.5,0-8.2-0.6-8.2-1.2C1013.1,773.5,1016.8,772.9,1021.3,772.9L1021.3,772.9z M887.2,770.1c1.7,0,3.1,0.2,3.1,0.5
	c0,0.2-1.4,0.5-3.1,0.5c-1.7,0-3.1-0.2-3.1-0.5C884.1,770.3,885.5,770.1,887.2,770.1L887.2,770.1z M881.4,765.4
	c1.7,0,3.1,0.2,3.1,0.5c0,0.2-1.4,0.5-3.1,0.5c-1.7,0-3.1-0.2-3.1-0.5C878.3,765.6,879.7,765.4,881.4,765.4L881.4,765.4z
	 M933.5,783.1c3.5,0,6.4,0.9,6.4,0.9c0,2-12.8,2-12.8,0C927,784,929.9,783.1,933.5,783.1L933.5,783.1z M975.5,784.3
	c6.2,0,11.3,0.7,11.3,1.7c0,0.9-5,1.7-11.3,1.7s-11.3-0.8-11.3-1.7C964.2,785,969.3,784.3,975.5,784.3L975.5,784.3z M934,777.2
	c5,0,9,0.6,9,1.4c0,0.8-4.1,1.4-9,1.4c-5,0-9-0.6-9-1.4C925,777.9,929,777.2,934,777.2L934,777.2z M956.5,772.5
	c1.7,0,3.1,0.2,3.1,0.5c0,0.2-1.4,0.5-3.1,0.5c-1.7,0-3.1-0.2-3.1-0.5C953.4,772.7,954.8,772.5,956.5,772.5L956.5,772.5z
	 M912.9,767.5c1.7,0,3.1,0.2,3.1,0.5c0,0.3-1.4,0.5-3.1,0.5c-1.7,0-3.1-0.2-3.1-0.5C909.8,767.7,911.2,767.5,912.9,767.5
	L912.9,767.5z M977.1,772.1c1.7,0,3.1,0.2,3.1,0.5c0,0.3-1.4,0.5-3.1,0.5c-1.7,0-3.1-0.2-3.1-0.5C974,772.3,975.4,772.1,977.1,772.1
	L977.1,772.1z M972.8,777.4c3.3,0,6.1,0.4,6.1,0.9c0,0.5-2.7,0.9-6.1,0.9c-3.4,0-6.1-0.4-6.1-0.9
	C966.8,777.8,969.5,777.4,972.8,777.4L972.8,777.4z M1013.3,767c2.3,0,4.1,0.3,4.1,0.6c0,0.3-1.8,0.6-4.1,0.6
	c-2.2,0-4.1-0.2-4.1-0.6C1009.2,767.3,1011,767,1013.3,767L1013.3,767z M1054.1,771.5c3,0,5.5,0.3,5.5,0.8s-2.4,0.8-5.5,0.8
	c-3,0-5.5-0.4-5.5-0.8S1051,771.5,1054.1,771.5L1054.1,771.5z M1037.3,766.8c5,0,9,0.6,9,1.4c0,0.7-4.1,1.4-9,1.4
	c-5,0-9.1-0.6-9.1-1.4C1028.2,767.4,1032.3,766.8,1037.3,766.8L1037.3,766.8z"/>
<g>
	<polygon fill-rule="evenodd" clip-rule="evenodd" fill="#B0A09D" points="641.1,753 759.9,753 1341.2,980 59.8,980 	"/>
	<path fill-rule="evenodd" clip-rule="evenodd" fill="#FFFFFF" d="M655.4,753h3.7l-504,227h-39.5L655.4,753z M697.7,754h2.5l-0.1,4
		h-2.8L697.7,754z M703.2,754h-2.5l0.2,4h2.7L703.2,754z M700.9,759l0.1,5h3.5l-0.8-5H700.9z M701,767l0.4,10h4.8l-1.4-10H701z
		 M701.5,783l0.1,12h7.1l-1.9-12H701.5z M701.8,803l0.2,11h9.2l-1.5-11H701.8z M702.3,822l0.3,15h11.8l-1.9-15H702.3z M702.8,848
		l0.5,21h15.4l-2.7-21H702.8z M703.6,882l0.8,37h20.9l-4.8-37H703.6z M704.8,935l0.9,39h27.1l-5.3-39H704.8z M700.1,759l-0.1,5h-3.5
		l0.8-5H700.1z M700,767l-0.4,10h-4.8l1.4-10H700z M699.5,783l-0.2,12h-7.1l1.9-12H699.5z M699.2,803l-0.2,11h-9.2l1.5-11H699.2z
		 M698.7,822l-0.3,15h-11.8l1.9-15H698.7z M698.1,848l-0.5,21h-15.4l2.7-21H698.1z M697.4,882l-0.8,37h-20.9l4.8-37H697.4z
		 M696.2,935l-0.9,39h-27.1l5.3-39H696.2z M745.5,753h-3.6l503.9,227h39.5L745.5,753z"/>
	<polygon fill-rule="evenodd" clip-rule="evenodd" fill="#806C68" points="640.8,752.5 0,953.6 0,980 59.8,980 	"/>
	<polygon fill-rule="evenodd" clip-rule="evenodd" fill="#B0A09D" points="640.5,752.3 0,953.6 0,937.4 	"/>
	<polygon fill-rule="evenodd" clip-rule="evenodd" fill="#806C68" points="759.7,752.5 1400,953.6 1400,980 1341.2,980 	"/>
	<polygon fill-rule="evenodd" clip-rule="evenodd" fill="#B0A09D" points="759.5,752.3 1400,953.6 1400,937.4 	"/>
</g>
</svg>
